<?xml version="1.0" encoding="UTF-8" standalone="no"?>
<svg
   xmlns:dc="http://purl.org/dc/elements/1.1/"
   xmlns:cc="http://creativecommons.org/ns#"
   xmlns:rdf="http://www.w3.org/1999/02/22-rdf-syntax-ns#"
   xmlns:svg="http://www.w3.org/2000/svg"
   xmlns="http://www.w3.org/2000/svg"
   xmlns:sodipodi="http://sodipodi.sourceforge.net/DTD/sodipodi-0.dtd"
   xmlns:inkscape="http://www.inkscape.org/namespaces/inkscape"
   width="32in"
   height="18in"
   viewBox="0 0 812.8 457.20002"
   version="1.1"
   id="svg2452"
   inkscape:version="1.0 (4035a4fb49, 2020-05-01)"
   sodipodi:docname="Frame_top_plate_B.svg">
  <defs
     id="defs2446">
    <marker
       style="overflow:visible"
       refY="0.0"
       refX="0.0"
       orient="auto"
       id="DistanceX">
      <path
         id="path3015"
         style="stroke:#000000; stroke-width:0.5"
         d="M 3,-3 L -3,3 M 0,-5 L  0,5" />
    </marker>
    <pattern
       y="0"
       x="0"
       height="8"
       width="8"
       patternUnits="userSpaceOnUse"
       id="Hatch">
      <path
         id="path3018"
         linecap="square"
         stroke-width="0.25"
         stroke="#000000"
         d="M8 4 l-4,4" />
      <path
         id="path3020"
         linecap="square"
         stroke-width="0.25"
         stroke="#000000"
         d="M6 2 l-4,4" />
      <path
         id="path3022"
         linecap="square"
         stroke-width="0.25"
         stroke="#000000"
         d="M4 0 l-4,4" />
    </pattern>
    <symbol
       id="*Model_Space" />
    <symbol
       id="*Paper_Space" />
    <symbol
       id="*Paper_Space0" />
  </defs>
  <sodipodi:namedview
     id="base"
     pagecolor="#ffffff"
     bordercolor="#666666"
     borderopacity="1.0"
     inkscape:pageopacity="0.0"
     inkscape:pageshadow="2"
     inkscape:zoom="0.35"
     inkscape:cx="400"
     inkscape:cy="560"
     inkscape:document-units="mm"
     inkscape:current-layer="layer1"
     inkscape:document-rotation="0"
     showgrid="false"
     units="in"
     inkscape:window-width="1920"
     inkscape:window-height="1013"
     inkscape:window-x="-9"
     inkscape:window-y="-9"
     inkscape:window-maximized="1" />
  <metadata
     id="metadata2449">
    <rdf:RDF>
      <cc:Work
         rdf:about="">
        <dc:format>image/svg+xml</dc:format>
        <dc:type
           rdf:resource="http://purl.org/dc/dcmitype/StillImage" />
        <dc:title />
      </cc:Work>
    </rdf:RDF>
  </metadata>
  <g
     inkscape:label="Calque 1"
     inkscape:groupmode="layer"
     id="layer1">
    <path
       d="m 183.01905,118.81227 a 0.90000004,0.90000004 0 1 0 -1.8,0 0.90000004,0.90000004 0 1 0 1.8,0 z"
       style="fill:none;stroke:#ff0000;stroke-width:0.025;stroke-linecap:round;stroke-opacity:1;stroke-miterlimit:4;stroke-dasharray:none"
       id="path3030" />
    <path
       d="m 273.01905,118.81227 a 0.90000004,0.90000004 0 1 0 -1.8,0 0.90000004,0.90000004 0 1 0 1.8,0 z"
       style="fill:none;stroke:#ff0000;stroke-width:0.025;stroke-linecap:round;stroke-opacity:1;stroke-miterlimit:4;stroke-dasharray:none"
       id="path3032" />
    <path
       d="m 273.01905,303.42584 a 0.90000004,0.90000004 0 1 0 -1.8,0 0.90000004,0.90000004 0 1 0 1.8,0 z"
       style="fill:none;stroke:#ff0000;stroke-width:0.025;stroke-linecap:round;stroke-opacity:1;stroke-miterlimit:4;stroke-dasharray:none"
       id="path3034" />
    <path
       d="m 183.01905,303.42584 a 0.90000004,0.90000004 0 1 0 -1.8,0 0.90000004,0.90000004 0 1 0 1.8,0 z"
       style="fill:none;stroke:#ff0000;stroke-width:0.025;stroke-linecap:round;stroke-opacity:1;stroke-miterlimit:4;stroke-dasharray:none"
       id="path3036" />
    <path
       d="m 333.01905,118.81227 a 0.90000004,0.90000004 0 1 0 -1.8,0 0.90000004,0.90000004 0 1 0 1.8,0 z"
       style="fill:none;stroke:#ff0000;stroke-width:0.025;stroke-linecap:round;stroke-opacity:1;stroke-miterlimit:4;stroke-dasharray:none"
       id="path3038" />
    <path
       d="m 423.01905,118.81227 a 0.90000004,0.90000004 0 1 0 -1.8,0 0.90000004,0.90000004 0 1 0 1.8,0 z"
       style="fill:none;stroke:#ff0000;stroke-width:0.025;stroke-linecap:round;stroke-opacity:1;stroke-miterlimit:4;stroke-dasharray:none"
       id="path3040" />
    <path
       d="m 423.01905,303.42584 a 0.90000004,0.90000004 0 1 0 -1.8,0 0.90000004,0.90000004 0 1 0 1.8,0 z"
       style="fill:none;stroke:#ff0000;stroke-width:0.025;stroke-linecap:round;stroke-opacity:1;stroke-miterlimit:4;stroke-dasharray:none"
       id="path3042" />
    <path
       d="m 333.01905,303.42584 a 0.90000004,0.90000004 0 1 0 -1.8,0 0.90000004,0.90000004 0 1 0 1.8,0 z"
       style="fill:none;stroke:#ff0000;stroke-width:0.025;stroke-linecap:round;stroke-opacity:1;stroke-miterlimit:4;stroke-dasharray:none"
       id="path3044" />
    <path
       d="m 483.01905,118.81227 a 0.90000004,0.90000004 0 1 0 -1.8,0 0.90000004,0.90000004 0 1 0 1.8,0 z"
       style="fill:none;stroke:#ff0000;stroke-width:0.025;stroke-linecap:round;stroke-opacity:1;stroke-miterlimit:4;stroke-dasharray:none"
       id="path3046" />
    <path
       d="m 573.01905,118.81227 a 0.90000004,0.90000004 0 1 0 -1.8,0 0.90000004,0.90000004 0 1 0 1.8,0 z"
       style="fill:none;stroke:#ff0000;stroke-width:0.025;stroke-linecap:round;stroke-opacity:1;stroke-miterlimit:4;stroke-dasharray:none"
       id="path3048" />
    <path
       d="m 573.01905,303.42584 a 0.90000004,0.90000004 0 1 0 -1.8,0 0.90000004,0.90000004 0 1 0 1.8,0 z"
       style="fill:none;stroke:#ff0000;stroke-width:0.025;stroke-linecap:round;stroke-opacity:1;stroke-miterlimit:4;stroke-dasharray:none"
       id="path3050" />
    <path
       d="m 483.01905,303.42584 a 0.90000004,0.90000004 0 1 0 -1.8,0 0.90000004,0.90000004 0 1 0 1.8,0 z"
       style="fill:none;stroke:#ff0000;stroke-width:0.025;stroke-linecap:round;stroke-opacity:1;stroke-miterlimit:4;stroke-dasharray:none"
       id="path3052" />
    <path
       d="m 36.765293,111.21906 a 3.57124,3.57124 0 1 0 -7.142479,0 3.57124,3.57124 0 1 0 7.142479,0 z"
       style="fill:none;stroke:#ff0000;stroke-width:0.025;stroke-linecap:round;stroke-opacity:1;stroke-miterlimit:4;stroke-dasharray:none"
       id="path3054" />
    <path
       d="m 116.14029,32.519058 a 3.57124,3.57124 0 1 0 -7.14248,0 3.57124,3.57124 0 1 0 7.14248,0 z"
       style="fill:none;stroke:#ff0000;stroke-width:0.025;stroke-linecap:round;stroke-opacity:1;stroke-miterlimit:4;stroke-dasharray:none"
       id="path3056" />
    <path
       d="m 542.94029,32.519058 a 3.57124,3.57124 0 1 0 -7.14248,0 3.57124,3.57124 0 1 0 7.14248,0 z"
       style="fill:none;stroke:#ff0000;stroke-width:0.025;stroke-linecap:round;stroke-opacity:1;stroke-miterlimit:4;stroke-dasharray:none"
       id="path3060" />
    <path
       d="m 542.94029,344.66904 a 3.57124,3.57124 0 1 0 -7.14248,0 3.57124,3.57124 0 1 0 7.14248,0 z"
       style="fill:none;stroke:#ff0000;stroke-width:0.025;stroke-linecap:round;stroke-opacity:1;stroke-miterlimit:4;stroke-dasharray:none"
       id="path3062" />
    <path
       d="m 116.14029,344.66904 a 3.57124,3.57124 0 1 0 -7.14248,0 3.57124,3.57124 0 1 0 7.14248,0 z"
       style="fill:none;stroke:#ff0000;stroke-width:0.025;stroke-linecap:round;stroke-opacity:1;stroke-miterlimit:4;stroke-dasharray:none"
       id="path3066" />
    <path
       d="m 36.765293,265.96905 a 3.57124,3.57124 0 1 0 -7.142479,0 3.57124,3.57124 0 1 0 7.142479,0 z"
       style="fill:none;stroke:#ff0000;stroke-width:0.025;stroke-linecap:round;stroke-opacity:1;stroke-miterlimit:4;stroke-dasharray:none"
       id="path3068" />
    <path
       d="M 62.117065,2.1190577 2.1190589,62.117069"
       style="fill:none;stroke:#ff0000;stroke-width:0.025;stroke-linecap:round;stroke-opacity:1;stroke-miterlimit:4;stroke-dasharray:none"
       id="path3070" />
    <path
       d="M 618.06905,2.1190577 H 62.117065"
       style="fill:none;stroke:#ff0000;stroke-width:0.025;stroke-linecap:round;stroke-opacity:1;stroke-miterlimit:4;stroke-dasharray:none"
       id="path3072" />
    <path
       d="M 618.06905,375.06906 V 2.1190577"
       style="fill:none;stroke:#ff0000;stroke-width:0.025;stroke-linecap:round;stroke-opacity:1;stroke-miterlimit:4;stroke-dasharray:none"
       id="path3074" />
    <path
       d="M 62.117065,375.06906 2.1190589,315.07106"
       style="fill:none;stroke:#ff0000;stroke-width:0.025;stroke-linecap:round;stroke-opacity:1;stroke-miterlimit:4;stroke-dasharray:none"
       id="path3076" />
    <path
       d="m 467.11905,171.11905 v 79.99999"
       style="fill:none;stroke:#ff0000;stroke-width:0.025;stroke-linecap:round;stroke-opacity:1;stroke-miterlimit:4;stroke-dasharray:none"
       id="path3078" />
    <path
       d="M 587.11905,251.11904 V 171.11905"
       style="fill:none;stroke:#ff0000;stroke-width:0.025;stroke-linecap:round;stroke-opacity:1;stroke-miterlimit:4;stroke-dasharray:none"
       id="path3080" />
    <path
       d="m 167.11905,171.11905 v 79.99999"
       style="fill:none;stroke:#ff0000;stroke-width:0.025;stroke-linecap:round;stroke-opacity:1;stroke-miterlimit:4;stroke-dasharray:none"
       id="path3082" />
    <path
       d="M 287.11905,251.11904 V 171.11905"
       style="fill:none;stroke:#ff0000;stroke-width:0.025;stroke-linecap:round;stroke-opacity:1;stroke-miterlimit:4;stroke-dasharray:none"
       id="path3084" />
    <path
       d="M 437.11905,251.11904 V 171.11905"
       style="fill:none;stroke:#ff0000;stroke-width:0.025;stroke-linecap:round;stroke-opacity:1;stroke-miterlimit:4;stroke-dasharray:none"
       id="path3086" />
    <path
       d="M 62.117065,375.06906 H 618.06905"
       style="fill:none;stroke:#ff0000;stroke-width:0.025;stroke-linecap:round;stroke-opacity:1;stroke-miterlimit:4;stroke-dasharray:none"
       id="path3088" />
    <path
       d="M 2.1190589,62.117069 V 315.07106"
       style="fill:none;stroke:#ff0000;stroke-width:0.025;stroke-linecap:round;stroke-opacity:1;stroke-miterlimit:4;stroke-dasharray:none"
       id="path3090" />
    <path
       d="m 317.11905,171.11905 v 79.99999"
       style="fill:none;stroke:#ff0000;stroke-width:0.025;stroke-linecap:round;stroke-opacity:1;stroke-miterlimit:4;stroke-dasharray:none"
       id="path3092" />
    <path
       d="m 467.11905,251.11904 a 60,60 0 0 0 120,0"
       style="fill:none;stroke:#ff0000;stroke-width:0.025;stroke-linecap:round;stroke-opacity:1;stroke-miterlimit:4;stroke-dasharray:none"
       id="path3094" />
    <path
       d="m 587.11905,171.11905 a 60,60 0 0 0 -120,0"
       style="fill:none;stroke:#ff0000;stroke-width:0.025;stroke-linecap:round;stroke-opacity:1;stroke-miterlimit:4;stroke-dasharray:none"
       id="path3096" />
    <path
       d="m 167.11905,251.11904 a 60,60 0 0 0 120,0"
       style="fill:none;stroke:#ff0000;stroke-width:0.025;stroke-linecap:round;stroke-opacity:1;stroke-miterlimit:4;stroke-dasharray:none"
       id="path3098" />
    <path
       d="m 287.11905,171.11905 a 60,60 0 0 0 -120,0"
       style="fill:none;stroke:#ff0000;stroke-width:0.025;stroke-linecap:round;stroke-opacity:1;stroke-miterlimit:4;stroke-dasharray:none"
       id="path3100" />
    <path
       d="m 317.11905,251.11904 a 60,60 0 0 0 120,0"
       style="fill:none;stroke:#ff0000;stroke-width:0.025;stroke-linecap:round;stroke-opacity:1;stroke-miterlimit:4;stroke-dasharray:none"
       id="path3102" />
    <path
       d="m 437.11905,171.11905 a 60,60 0 0 0 -120,0"
       style="fill:none;stroke:#ff0000;stroke-width:0.025;stroke-linecap:round;stroke-opacity:1;stroke-miterlimit:4;stroke-dasharray:none"
       id="path3104" />
  </g>
</svg>
